<mxfile host="www.draw.io" modified="2019-12-21T23:52:07.593Z" agent="Mozilla/5.0 (Windows NT 10.0; Win64; x64) AppleWebKit/537.36 (KHTML, like Gecko) Chrome/78.0.3904.108 Safari/537.36" etag="nBKu2PT7575gJsYHrL7Z" version="12.4.3" type="github" pages="1">
  <diagram id="EVOOky_ZT5IfMZzN4svs" name="Page-1">
    <mxGraphModel dx="1360" dy="802" grid="1" gridSize="10" guides="1" tooltips="1" connect="1" arrows="1" fold="1" page="1" pageScale="1" pageWidth="827" pageHeight="1169" math="0" shadow="0">
      <root>
        <mxCell id="0"/>
        <mxCell id="1" parent="0"/>
        <mxCell id="E2bD5ywFKokk-ImHggS_-3" value="" style="edgeStyle=orthogonalEdgeStyle;rounded=0;orthogonalLoop=1;jettySize=auto;html=1;" parent="1" source="E2bD5ywFKokk-ImHggS_-1" target="E2bD5ywFKokk-ImHggS_-2" edge="1">
          <mxGeometry relative="1" as="geometry"/>
        </mxCell>
        <mxCell id="E2bD5ywFKokk-ImHggS_-1" value="导入订单" style="rounded=0;whiteSpace=wrap;html=1;" parent="1" vertex="1">
          <mxGeometry x="330" y="40" width="120" height="60" as="geometry"/>
        </mxCell>
        <mxCell id="E2bD5ywFKokk-ImHggS_-5" value="" style="edgeStyle=orthogonalEdgeStyle;rounded=0;orthogonalLoop=1;jettySize=auto;html=1;" parent="1" source="E2bD5ywFKokk-ImHggS_-2" target="E2bD5ywFKokk-ImHggS_-6" edge="1">
          <mxGeometry relative="1" as="geometry">
            <mxPoint x="390" y="320" as="targetPoint"/>
          </mxGeometry>
        </mxCell>
        <mxCell id="E2bD5ywFKokk-ImHggS_-2" value="优化重量" style="rounded=0;whiteSpace=wrap;html=1;" parent="1" vertex="1">
          <mxGeometry x="330" y="180" width="120" height="60" as="geometry"/>
        </mxCell>
        <mxCell id="E2bD5ywFKokk-ImHggS_-9" value="" style="edgeStyle=orthogonalEdgeStyle;rounded=0;orthogonalLoop=1;jettySize=auto;html=1;entryX=0.5;entryY=0;entryDx=0;entryDy=0;" parent="1" source="E2bD5ywFKokk-ImHggS_-6" target="E2bD5ywFKokk-ImHggS_-14" edge="1">
          <mxGeometry relative="1" as="geometry">
            <mxPoint x="390" y="490" as="targetPoint"/>
          </mxGeometry>
        </mxCell>
        <mxCell id="E2bD5ywFKokk-ImHggS_-6" value="校验信息" style="rounded=0;whiteSpace=wrap;html=1;" parent="1" vertex="1">
          <mxGeometry x="330" y="350" width="120" height="60" as="geometry"/>
        </mxCell>
        <mxCell id="E2bD5ywFKokk-ImHggS_-27" style="edgeStyle=orthogonalEdgeStyle;rounded=0;orthogonalLoop=1;jettySize=auto;html=1;entryX=0.5;entryY=0;entryDx=0;entryDy=0;" parent="1" source="E2bD5ywFKokk-ImHggS_-26" target="E2bD5ywFKokk-ImHggS_-29" edge="1">
          <mxGeometry relative="1" as="geometry">
            <mxPoint x="390" y="670" as="targetPoint"/>
          </mxGeometry>
        </mxCell>
        <mxCell id="E2bD5ywFKokk-ImHggS_-28" style="edgeStyle=orthogonalEdgeStyle;rounded=0;orthogonalLoop=1;jettySize=auto;html=1;entryX=0;entryY=0.5;entryDx=0;entryDy=0;" parent="1" source="E2bD5ywFKokk-ImHggS_-20" target="E2bD5ywFKokk-ImHggS_-19" edge="1">
          <mxGeometry relative="1" as="geometry"/>
        </mxCell>
        <mxCell id="E2bD5ywFKokk-ImHggS_-14" value="确认商品信息是否符合&lt;br&gt;申报类型（商业快件）" style="rhombus;whiteSpace=wrap;html=1;" parent="1" vertex="1">
          <mxGeometry x="270" y="500" width="240" height="90" as="geometry"/>
        </mxCell>
        <mxCell id="E2bD5ywFKokk-ImHggS_-65" style="edgeStyle=orthogonalEdgeStyle;rounded=0;orthogonalLoop=1;jettySize=auto;html=1;entryX=1;entryY=0.75;entryDx=0;entryDy=0;" parent="1" source="E2bD5ywFKokk-ImHggS_-19" target="E2bD5ywFKokk-ImHggS_-36" edge="1">
          <mxGeometry relative="1" as="geometry">
            <Array as="points">
              <mxPoint x="690" y="995"/>
            </Array>
          </mxGeometry>
        </mxCell>
        <mxCell id="E2bD5ywFKokk-ImHggS_-19" value="完善订单信息" style="rounded=0;whiteSpace=wrap;html=1;" parent="1" vertex="1">
          <mxGeometry x="620" y="515" width="120" height="60" as="geometry"/>
        </mxCell>
        <mxCell id="E2bD5ywFKokk-ImHggS_-33" style="edgeStyle=orthogonalEdgeStyle;rounded=0;orthogonalLoop=1;jettySize=auto;html=1;" parent="1" source="E2bD5ywFKokk-ImHggS_-29" target="E2bD5ywFKokk-ImHggS_-30" edge="1">
          <mxGeometry relative="1" as="geometry"/>
        </mxCell>
        <mxCell id="E2bD5ywFKokk-ImHggS_-29" value="入仓" style="rounded=0;whiteSpace=wrap;html=1;" parent="1" vertex="1">
          <mxGeometry x="330" y="680" width="120" height="60" as="geometry"/>
        </mxCell>
        <mxCell id="E2bD5ywFKokk-ImHggS_-37" value="" style="edgeStyle=orthogonalEdgeStyle;rounded=0;orthogonalLoop=1;jettySize=auto;html=1;" parent="1" source="E2bD5ywFKokk-ImHggS_-30" target="E2bD5ywFKokk-ImHggS_-36" edge="1">
          <mxGeometry relative="1" as="geometry"/>
        </mxCell>
        <mxCell id="E2bD5ywFKokk-ImHggS_-30" value="签收" style="rounded=0;whiteSpace=wrap;html=1;" parent="1" vertex="1">
          <mxGeometry x="330" y="810" width="120" height="60" as="geometry"/>
        </mxCell>
        <mxCell id="E2bD5ywFKokk-ImHggS_-39" value="" style="edgeStyle=orthogonalEdgeStyle;rounded=0;orthogonalLoop=1;jettySize=auto;html=1;" parent="1" source="E2bD5ywFKokk-ImHggS_-36" target="E2bD5ywFKokk-ImHggS_-41" edge="1">
          <mxGeometry relative="1" as="geometry">
            <mxPoint x="390" y="1090" as="targetPoint"/>
          </mxGeometry>
        </mxCell>
        <mxCell id="E2bD5ywFKokk-ImHggS_-36" value="申报导出，提交海关" style="rounded=0;whiteSpace=wrap;html=1;" parent="1" vertex="1">
          <mxGeometry x="330" y="950" width="120" height="60" as="geometry"/>
        </mxCell>
        <mxCell id="E2bD5ywFKokk-ImHggS_-20" value="否" style="text;html=1;align=center;verticalAlign=middle;resizable=0;points=[];;autosize=1;" parent="1" vertex="1">
          <mxGeometry x="550" y="535" width="30" height="20" as="geometry"/>
        </mxCell>
        <mxCell id="E2bD5ywFKokk-ImHggS_-31" style="edgeStyle=orthogonalEdgeStyle;rounded=0;orthogonalLoop=1;jettySize=auto;html=1;entryX=0;entryY=0.5;entryDx=0;entryDy=0;" parent="1" source="E2bD5ywFKokk-ImHggS_-14" target="E2bD5ywFKokk-ImHggS_-20" edge="1">
          <mxGeometry relative="1" as="geometry">
            <mxPoint x="510" y="545" as="sourcePoint"/>
            <mxPoint x="620" y="545" as="targetPoint"/>
          </mxGeometry>
        </mxCell>
        <mxCell id="E2bD5ywFKokk-ImHggS_-26" value="是" style="text;html=1;align=center;verticalAlign=middle;resizable=0;points=[];;autosize=1;" parent="1" vertex="1">
          <mxGeometry x="375" y="620" width="30" height="20" as="geometry"/>
        </mxCell>
        <mxCell id="E2bD5ywFKokk-ImHggS_-32" style="edgeStyle=orthogonalEdgeStyle;rounded=0;orthogonalLoop=1;jettySize=auto;html=1;entryX=0.5;entryY=0;entryDx=0;entryDy=0;" parent="1" source="E2bD5ywFKokk-ImHggS_-14" target="E2bD5ywFKokk-ImHggS_-26" edge="1">
          <mxGeometry relative="1" as="geometry">
            <mxPoint x="390" y="590" as="sourcePoint"/>
            <mxPoint x="390" y="680" as="targetPoint"/>
          </mxGeometry>
        </mxCell>
        <mxCell id="E2bD5ywFKokk-ImHggS_-34" value="&lt;h1&gt;备注&lt;/h1&gt;&lt;p&gt;确认信息和入仓，签收可以同时进行不冲突&lt;/p&gt;" style="text;html=1;strokeColor=#d6b656;fillColor=#fff2cc;spacing=5;spacingTop=-20;whiteSpace=wrap;overflow=hidden;rounded=0;" parent="1" vertex="1">
          <mxGeometry x="70" y="500" width="190" height="120" as="geometry"/>
        </mxCell>
        <mxCell id="E2bD5ywFKokk-ImHggS_-35" value="&lt;h1&gt;备注&lt;/h1&gt;&lt;p&gt;入仓列表中 【导出签收单】 【修改】有何作用&lt;/p&gt;" style="text;html=1;strokeColor=#b85450;fillColor=#f8cecc;spacing=5;spacingTop=-20;whiteSpace=wrap;overflow=hidden;rounded=0;" parent="1" vertex="1">
          <mxGeometry x="450" y="680" width="190" height="90" as="geometry"/>
        </mxCell>
        <mxCell id="E2bD5ywFKokk-ImHggS_-43" value="" style="edgeStyle=orthogonalEdgeStyle;rounded=0;orthogonalLoop=1;jettySize=auto;html=1;" parent="1" source="E2bD5ywFKokk-ImHggS_-41" target="E2bD5ywFKokk-ImHggS_-50" edge="1">
          <mxGeometry relative="1" as="geometry">
            <mxPoint x="390" y="1210" as="targetPoint"/>
          </mxGeometry>
        </mxCell>
        <mxCell id="E2bD5ywFKokk-ImHggS_-45" value="" style="edgeStyle=orthogonalEdgeStyle;rounded=0;orthogonalLoop=1;jettySize=auto;html=1;entryX=1;entryY=0.5;entryDx=0;entryDy=0;" parent="1" source="E2bD5ywFKokk-ImHggS_-41" target="E2bD5ywFKokk-ImHggS_-55" edge="1">
          <mxGeometry relative="1" as="geometry">
            <mxPoint x="200" y="1090" as="targetPoint"/>
          </mxGeometry>
        </mxCell>
        <mxCell id="E2bD5ywFKokk-ImHggS_-47" value="" style="edgeStyle=orthogonalEdgeStyle;rounded=0;orthogonalLoop=1;jettySize=auto;html=1;entryX=0;entryY=0.5;entryDx=0;entryDy=0;" parent="1" source="E2bD5ywFKokk-ImHggS_-41" target="E2bD5ywFKokk-ImHggS_-57" edge="1">
          <mxGeometry relative="1" as="geometry">
            <mxPoint x="590" y="1090" as="targetPoint"/>
          </mxGeometry>
        </mxCell>
        <mxCell id="E2bD5ywFKokk-ImHggS_-41" value="根据海关反馈执行操作" style="shape=parallelogram;perimeter=parallelogramPerimeter;whiteSpace=wrap;html=1;" parent="1" vertex="1">
          <mxGeometry x="302.5" y="1050" width="175" height="80" as="geometry"/>
        </mxCell>
        <mxCell id="E2bD5ywFKokk-ImHggS_-54" style="edgeStyle=orthogonalEdgeStyle;rounded=0;orthogonalLoop=1;jettySize=auto;html=1;entryX=1;entryY=0.75;entryDx=0;entryDy=0;" parent="1" target="E2bD5ywFKokk-ImHggS_-50" edge="1">
          <mxGeometry relative="1" as="geometry">
            <mxPoint x="650" y="1120" as="sourcePoint"/>
            <Array as="points">
              <mxPoint x="650" y="1235"/>
            </Array>
          </mxGeometry>
        </mxCell>
        <mxCell id="E2bD5ywFKokk-ImHggS_-59" value="放行" style="text;html=1;align=center;verticalAlign=middle;resizable=0;points=[];;labelBackgroundColor=#ffffff;" parent="E2bD5ywFKokk-ImHggS_-54" vertex="1" connectable="0">
          <mxGeometry x="0.2889" y="5" relative="1" as="geometry">
            <mxPoint as="offset"/>
          </mxGeometry>
        </mxCell>
        <mxCell id="E2bD5ywFKokk-ImHggS_-52" value="" style="edgeStyle=orthogonalEdgeStyle;rounded=0;orthogonalLoop=1;jettySize=auto;html=1;" parent="1" source="E2bD5ywFKokk-ImHggS_-50" target="E2bD5ywFKokk-ImHggS_-51" edge="1">
          <mxGeometry relative="1" as="geometry"/>
        </mxCell>
        <mxCell id="E2bD5ywFKokk-ImHggS_-50" value="指定分单号放行" style="rounded=0;whiteSpace=wrap;html=1;" parent="1" vertex="1">
          <mxGeometry x="330" y="1190" width="120" height="60" as="geometry"/>
        </mxCell>
        <mxCell id="E2bD5ywFKokk-ImHggS_-51" value="放行" style="rounded=0;whiteSpace=wrap;html=1;" parent="1" vertex="1">
          <mxGeometry x="330" y="1330" width="120" height="60" as="geometry"/>
        </mxCell>
        <mxCell id="E2bD5ywFKokk-ImHggS_-56" style="edgeStyle=orthogonalEdgeStyle;rounded=0;orthogonalLoop=1;jettySize=auto;html=1;entryX=0;entryY=0.75;entryDx=0;entryDy=0;" parent="1" source="E2bD5ywFKokk-ImHggS_-55" target="E2bD5ywFKokk-ImHggS_-50" edge="1">
          <mxGeometry relative="1" as="geometry">
            <Array as="points">
              <mxPoint x="135" y="1235"/>
            </Array>
          </mxGeometry>
        </mxCell>
        <mxCell id="E2bD5ywFKokk-ImHggS_-60" value="放行" style="text;html=1;align=center;verticalAlign=middle;resizable=0;points=[];;labelBackgroundColor=#ffffff;" parent="E2bD5ywFKokk-ImHggS_-56" vertex="1" connectable="0">
          <mxGeometry x="-0.3448" y="57" relative="1" as="geometry">
            <mxPoint x="57" y="60" as="offset"/>
          </mxGeometry>
        </mxCell>
        <mxCell id="E2bD5ywFKokk-ImHggS_-58" style="edgeStyle=orthogonalEdgeStyle;rounded=0;orthogonalLoop=1;jettySize=auto;html=1;entryX=0.5;entryY=0;entryDx=0;entryDy=0;" parent="1" source="E2bD5ywFKokk-ImHggS_-55" target="E2bD5ywFKokk-ImHggS_-57" edge="1">
          <mxGeometry relative="1" as="geometry">
            <Array as="points">
              <mxPoint x="135" y="900"/>
              <mxPoint x="650" y="900"/>
            </Array>
          </mxGeometry>
        </mxCell>
        <mxCell id="E2bD5ywFKokk-ImHggS_-61" value="设为扣关" style="text;html=1;align=center;verticalAlign=middle;resizable=0;points=[];;labelBackgroundColor=#ffffff;" parent="E2bD5ywFKokk-ImHggS_-58" vertex="1" connectable="0">
          <mxGeometry x="-0.6522" y="-98" relative="1" as="geometry">
            <mxPoint x="145" y="-98" as="offset"/>
          </mxGeometry>
        </mxCell>
        <mxCell id="E2bD5ywFKokk-ImHggS_-55" value="&lt;span style=&quot;white-space: normal&quot;&gt;指定分单号查验&lt;/span&gt;" style="rhombus;whiteSpace=wrap;html=1;" parent="1" vertex="1">
          <mxGeometry x="70" y="1040" width="130" height="100" as="geometry"/>
        </mxCell>
        <mxCell id="E2bD5ywFKokk-ImHggS_-63" value="" style="edgeStyle=orthogonalEdgeStyle;rounded=0;orthogonalLoop=1;jettySize=auto;html=1;" parent="1" source="E2bD5ywFKokk-ImHggS_-57" target="E2bD5ywFKokk-ImHggS_-64" edge="1">
          <mxGeometry relative="1" as="geometry">
            <mxPoint x="770" y="1090" as="targetPoint"/>
          </mxGeometry>
        </mxCell>
        <mxCell id="E2bD5ywFKokk-ImHggS_-57" value="指定分单号扣关" style="rhombus;whiteSpace=wrap;html=1;" parent="1" vertex="1">
          <mxGeometry x="610" y="1050" width="80" height="80" as="geometry"/>
        </mxCell>
        <mxCell id="E2bD5ywFKokk-ImHggS_-64" value="弃货" style="rounded=0;whiteSpace=wrap;html=1;" parent="1" vertex="1">
          <mxGeometry x="790" y="1060" width="120" height="60" as="geometry"/>
        </mxCell>
      </root>
    </mxGraphModel>
  </diagram>
</mxfile>
